{
  "accessors": [
    {
      "bufferView": 0,
      "componentType": 5126,
      "count": 559,
      "max": [
        138.77093505859375,
        138.77093505859375,
        138.77093505859375
      ],
      "min": [
        -138.77093505859375,
        -138.77093505859375,
        -138.77093505859375
      ],
      "name": "skyBox/POSITION",
      "type": "VEC3"
    },
    {
      "bufferView": 0,
      "byteOffset": 12,
      "componentType": 5126,
      "count": 559,
      "name": "skyBox/NORMAL",
      "type": "VEC3"
    },
    {
      "bufferView": 0,
      "byteOffset": 24,
      "componentType": 5126,
      "count": 559,
      "name": "skyBox/TEXCOORD_0",
      "type": "VEC2"
    },
    {
      "bufferView": 1,
      "componentType": 5125,
      "count": 2880,
      "name": "skyBox/INDICES",
      "type": "SCALAR"
    }
  ],
  "asset": {
    "copyright": "Copyright (c) 2018-2020 Chukong Technologies Inc.",
    "generator": "FBX-glTF-conv",
    "version": "2.0"
  },
  "bufferViews": [
    {
      "buffer": 0,
      "byteLength": 17888,
      "byteStride": 32,
      "name": "skyBox",
      "target": 34962
    },
    {
      "buffer": 0,
      "byteLength": 11520,
      "byteOffset": 17888
    }
  ],
  "buffers": [
    {
      "byteLength": 29408,
      "uri": "out.bin"
    }
  ],
  "images": [
    {
      "extras": {
        "FBX-glTF-conv": {
          "fileName": "F:\\游戏项目\\2020雅基项目\\Q版笑傲江湖\\天空盒\\skyBox1.png",
          "relativeFileName": "skyBox1.png"
        }
      },
      "name": "skyBox",
      "uri": "data:image/png;base64,"
    }
  ],
  "materials": [
    {
      "name": "skyBox",
      "pbrMetallicRoughness": {
        "baseColorTexture": {
          "index": 0
        },
        "metallicFactor": 0.4000000059604645,
        "roughnessFactor": 0.7071067690849304
      }
    }
  ],
  "meshes": [
    {
      "name": "skyBox",
      "primitives": [
        {
          "attributes": {
            "NORMAL": 1,
            "POSITION": 0,
            "TEXCOORD_0": 2
          },
          "indices": 3,
          "material": 0
        }
      ]
    }
  ],
  "nodes": [
    {
      "mesh": 0,
      "name": "skyBox",
      "rotation": [
        -0.7071067690849304,
        -0.0,
        0.0,
        0.7071067690849304
      ],
      "scale": [
        2.5770249366760254,
        2.5770249366760254,
        2.5770249366760254
      ],
      "translation": [
        0.0,
        0.0,
        5.5636178331042174e-06
      ]
    }
  ],
  "samplers": [
    {}
  ],
  "scenes": [
    {
      "nodes": [
        0
      ]
    }
  ],
  "textures": [
    {
      "name": "skyBox",
      "sampler": 0,
      "source": 0
    }
  ]
}