{
  "accessors": [
    {
      "bufferView": 0,
      "componentType": 5126,
      "count": 185,
      "max": [
        236.69351196289063,
        91.85430145263672,
        74.21592712402344
      ],
      "min": [
        -236.32388305664063,
        -91.85430145263672,
        -76.82807922363281
      ],
      "name": "body/POSITION",
      "type": "VEC3"
    },
    {
      "bufferView": 0,
      "byteOffset": 12,
      "componentType": 5126,
      "count": 185,
      "name": "body/NORMAL",
      "type": "VEC3"
    },
    {
      "bufferView": 0,
      "byteOffset": 24,
      "componentType": 5126,
      "count": 185,
      "name": "body/TEXCOORD_0",
      "type": "VEC2"
    },
    {
      "bufferView": 0,
      "byteOffset": 32,
      "componentType": 5123,
      "count": 185,
      "name": "body/JOINTS_0",
      "type": "VEC4"
    },
    {
      "bufferView": 0,
      "byteOffset": 40,
      "componentType": 5126,
      "count": 185,
      "name": "body/WEIGHTS_0",
      "type": "VEC4"
    },
    {
      "bufferView": 1,
      "componentType": 5125,
      "count": 930,
      "name": "body/INDICES",
      "type": "SCALAR"
    },
    {
      "bufferView": 2,
      "componentType": 5126,
      "count": 6,
      "name": "/InverseBindMatrices",
      "type": "MAT4"
    },
    {
      "bufferView": 3,
      "componentType": 5126,
      "count": 32,
      "max": [
        1.2916666269302368
      ],
      "min": [
        0.0
      ],
      "name": "Bip01/Trs/Input",
      "type": "SCALAR"
    },
    {
      "bufferView": 4,
      "componentType": 5126,
      "count": 32,
      "name": "Bip01/translation/Output",
      "type": "VEC3"
    },
    {
      "bufferView": 5,
      "componentType": 5126,
      "count": 32,
      "name": "Bip01/rotation/Output",
      "type": "VEC4"
    },
    {
      "bufferView": 6,
      "componentType": 5126,
      "count": 32,
      "name": "Bip01/scale/Output",
      "type": "VEC3"
    },
    {
      "bufferView": 7,
      "componentType": 5126,
      "count": 32,
      "max": [
        1.2916666269302368
      ],
      "min": [
        0.0
      ],
      "name": "Bone002/Trs/Input",
      "type": "SCALAR"
    },
    {
      "bufferView": 8,
      "componentType": 5126,
      "count": 32,
      "name": "Bone002/translation/Output",
      "type": "VEC3"
    },
    {
      "bufferView": 9,
      "componentType": 5126,
      "count": 32,
      "name": "Bone002/rotation/Output",
      "type": "VEC4"
    },
    {
      "bufferView": 10,
      "componentType": 5126,
      "count": 32,
      "name": "Bone002/scale/Output",
      "type": "VEC3"
    },
    {
      "bufferView": 11,
      "componentType": 5126,
      "count": 32,
      "max": [
        1.2916666269302368
      ],
      "min": [
        0.0
      ],
      "name": "Bone003/Trs/Input",
      "type": "SCALAR"
    },
    {
      "bufferView": 12,
      "componentType": 5126,
      "count": 32,
      "name": "Bone003/translation/Output",
      "type": "VEC3"
    },
    {
      "bufferView": 13,
      "componentType": 5126,
      "count": 32,
      "name": "Bone003/rotation/Output",
      "type": "VEC4"
    },
    {
      "bufferView": 14,
      "componentType": 5126,
      "count": 32,
      "name": "Bone003/scale/Output",
      "type": "VEC3"
    },
    {
      "bufferView": 15,
      "componentType": 5126,
      "count": 32,
      "max": [
        1.2916666269302368
      ],
      "min": [
        0.0
      ],
      "name": "Bone004/Trs/Input",
      "type": "SCALAR"
    },
    {
      "bufferView": 16,
      "componentType": 5126,
      "count": 32,
      "name": "Bone004/translation/Output",
      "type": "VEC3"
    },
    {
      "bufferView": 17,
      "componentType": 5126,
      "count": 32,
      "name": "Bone004/rotation/Output",
      "type": "VEC4"
    },
    {
      "bufferView": 18,
      "componentType": 5126,
      "count": 32,
      "name": "Bone004/scale/Output",
      "type": "VEC3"
    },
    {
      "bufferView": 19,
      "componentType": 5126,
      "count": 14,
      "max": [
        1.2916666269302368
      ],
      "min": [
        0.0
      ],
      "name": "B_head/Trs/Input",
      "type": "SCALAR"
    },
    {
      "bufferView": 20,
      "componentType": 5126,
      "count": 14,
      "name": "B_head/translation/Output",
      "type": "VEC3"
    },
    {
      "bufferView": 21,
      "componentType": 5126,
      "count": 14,
      "name": "B_head/rotation/Output",
      "type": "VEC4"
    },
    {
      "bufferView": 22,
      "componentType": 5126,
      "count": 14,
      "name": "B_head/scale/Output",
      "type": "VEC3"
    },
    {
      "bufferView": 23,
      "componentType": 5126,
      "count": 31,
      "max": [
        1.2916666269302368
      ],
      "min": [
        0.0
      ],
      "name": "Bone006(mirrored)/Trs/Input",
      "type": "SCALAR"
    },
    {
      "bufferView": 24,
      "componentType": 5126,
      "count": 31,
      "name": "Bone006(mirrored)/translation/Output",
      "type": "VEC3"
    },
    {
      "bufferView": 25,
      "componentType": 5126,
      "count": 31,
      "name": "Bone006(mirrored)/rotation/Output",
      "type": "VEC4"
    },
    {
      "bufferView": 26,
      "componentType": 5126,
      "count": 31,
      "name": "Bone006(mirrored)/scale/Output",
      "type": "VEC3"
    },
    {
      "bufferView": 27,
      "componentType": 5126,
      "count": 31,
      "max": [
        1.2916666269302368
      ],
      "min": [
        0.0
      ],
      "name": "Bone006/Trs/Input",
      "type": "SCALAR"
    },
    {
      "bufferView": 28,
      "componentType": 5126,
      "count": 31,
      "name": "Bone006/translation/Output",
      "type": "VEC3"
    },
    {
      "bufferView": 29,
      "componentType": 5126,
      "count": 31,
      "name": "Bone006/rotation/Output",
      "type": "VEC4"
    },
    {
      "bufferView": 30,
      "componentType": 5126,
      "count": 31,
      "name": "Bone006/scale/Output",
      "type": "VEC3"
    }
  ],
  "animations": [
    {
      "channels": [
        {
          "sampler": 0,
          "target": {
            "node": 1,
            "path": "translation"
          }
        },
        {
          "sampler": 1,
          "target": {
            "node": 1,
            "path": "rotation"
          }
        },
        {
          "sampler": 2,
          "target": {
            "node": 1,
            "path": "scale"
          }
        },
        {
          "sampler": 3,
          "target": {
            "node": 2,
            "path": "translation"
          }
        },
        {
          "sampler": 4,
          "target": {
            "node": 2,
            "path": "rotation"
          }
        },
        {
          "sampler": 5,
          "target": {
            "node": 2,
            "path": "scale"
          }
        },
        {
          "sampler": 6,
          "target": {
            "node": 3,
            "path": "translation"
          }
        },
        {
          "sampler": 7,
          "target": {
            "node": 3,
            "path": "rotation"
          }
        },
        {
          "sampler": 8,
          "target": {
            "node": 3,
            "path": "scale"
          }
        },
        {
          "sampler": 9,
          "target": {
            "node": 4,
            "path": "translation"
          }
        },
        {
          "sampler": 10,
          "target": {
            "node": 4,
            "path": "rotation"
          }
        },
        {
          "sampler": 11,
          "target": {
            "node": 4,
            "path": "scale"
          }
        },
        {
          "sampler": 12,
          "target": {
            "node": 5,
            "path": "translation"
          }
        },
        {
          "sampler": 13,
          "target": {
            "node": 5,
            "path": "rotation"
          }
        },
        {
          "sampler": 14,
          "target": {
            "node": 5,
            "path": "scale"
          }
        },
        {
          "sampler": 15,
          "target": {
            "node": 6,
            "path": "translation"
          }
        },
        {
          "sampler": 16,
          "target": {
            "node": 6,
            "path": "rotation"
          }
        },
        {
          "sampler": 17,
          "target": {
            "node": 6,
            "path": "scale"
          }
        },
        {
          "sampler": 18,
          "target": {
            "node": 7,
            "path": "translation"
          }
        },
        {
          "sampler": 19,
          "target": {
            "node": 7,
            "path": "rotation"
          }
        },
        {
          "sampler": 20,
          "target": {
            "node": 7,
            "path": "scale"
          }
        }
      ],
      "name": "Take 001",
      "samplers": [
        {
          "input": 7,
          "output": 8
        },
        {
          "input": 7,
          "output": 9
        },
        {
          "input": 7,
          "output": 10
        },
        {
          "input": 11,
          "output": 12
        },
        {
          "input": 11,
          "output": 13
        },
        {
          "input": 11,
          "output": 14
        },
        {
          "input": 15,
          "output": 16
        },
        {
          "input": 15,
          "output": 17
        },
        {
          "input": 15,
          "output": 18
        },
        {
          "input": 19,
          "output": 20
        },
        {
          "input": 19,
          "output": 21
        },
        {
          "input": 19,
          "output": 22
        },
        {
          "input": 23,
          "output": 24
        },
        {
          "input": 23,
          "output": 25
        },
        {
          "input": 23,
          "output": 26
        },
        {
          "input": 27,
          "output": 28
        },
        {
          "input": 27,
          "output": 29
        },
        {
          "input": 27,
          "output": 30
        },
        {
          "input": 31,
          "output": 32
        },
        {
          "input": 31,
          "output": 33
        },
        {
          "input": 31,
          "output": 34
        }
      ]
    }
  ],
  "asset": {
    "copyright": "Copyright (c) 2018-2020 Chukong Technologies Inc.",
    "generator": "FBX-glTF-conv",
    "version": "2.0"
  },
  "bufferViews": [
    {
      "buffer": 0,
      "byteLength": 10360,
      "byteStride": 56,
      "name": "body",
      "target": 34962
    },
    {
      "buffer": 0,
      "byteLength": 3720,
      "byteOffset": 10360
    },
    {
      "buffer": 0,
      "byteLength": 384,
      "byteOffset": 14080
    },
    {
      "buffer": 0,
      "byteLength": 128,
      "byteOffset": 14464
    },
    {
      "buffer": 0,
      "byteLength": 384,
      "byteOffset": 14592
    },
    {
      "buffer": 0,
      "byteLength": 512,
      "byteOffset": 14976
    },
    {
      "buffer": 0,
      "byteLength": 384,
      "byteOffset": 15488
    },
    {
      "buffer": 0,
      "byteLength": 128,
      "byteOffset": 15872
    },
    {
      "buffer": 0,
      "byteLength": 384,
      "byteOffset": 16000
    },
    {
      "buffer": 0,
      "byteLength": 512,
      "byteOffset": 16384
    },
    {
      "buffer": 0,
      "byteLength": 384,
      "byteOffset": 16896
    },
    {
      "buffer": 0,
      "byteLength": 128,
      "byteOffset": 17280
    },
    {
      "buffer": 0,
      "byteLength": 384,
      "byteOffset": 17408
    },
    {
      "buffer": 0,
      "byteLength": 512,
      "byteOffset": 17792
    },
    {
      "buffer": 0,
      "byteLength": 384,
      "byteOffset": 18304
    },
    {
      "buffer": 0,
      "byteLength": 128,
      "byteOffset": 18688
    },
    {
      "buffer": 0,
      "byteLength": 384,
      "byteOffset": 18816
    },
    {
      "buffer": 0,
      "byteLength": 512,
      "byteOffset": 19200
    },
    {
      "buffer": 0,
      "byteLength": 384,
      "byteOffset": 19712
    },
    {
      "buffer": 0,
      "byteLength": 56,
      "byteOffset": 20096
    },
    {
      "buffer": 0,
      "byteLength": 168,
      "byteOffset": 20152
    },
    {
      "buffer": 0,
      "byteLength": 224,
      "byteOffset": 20320
    },
    {
      "buffer": 0,
      "byteLength": 168,
      "byteOffset": 20544
    },
    {
      "buffer": 0,
      "byteLength": 124,
      "byteOffset": 20712
    },
    {
      "buffer": 0,
      "byteLength": 372,
      "byteOffset": 20836
    },
    {
      "buffer": 0,
      "byteLength": 496,
      "byteOffset": 21208
    },
    {
      "buffer": 0,
      "byteLength": 372,
      "byteOffset": 21704
    },
    {
      "buffer": 0,
      "byteLength": 124,
      "byteOffset": 22076
    },
    {
      "buffer": 0,
      "byteLength": 372,
      "byteOffset": 22200
    },
    {
      "buffer": 0,
      "byteLength": 496,
      "byteOffset": 22572
    },
    {
      "buffer": 0,
      "byteLength": 372,
      "byteOffset": 23068
    }
  ],
  "buffers": [
    {
      "byteLength": 23440,
      "uri": "out.bin"
    }
  ],
  "images": [
    {
      "extras": {
        "FBX-glTF-conv": {
          "fileName": "C:\\Home\\workspace\\classAssetsBundle\\assets\\AssetsPackage\\Charactors\\Models\\xiaolvyu\\xiaolvyu.png",
          "relativeFileName": "xiaolvyu.png"
        }
      },
      "name": "Map #3",
      "uri": "xiaolvyu.png"
    }
  ],
  "materials": [
    {
      "name": "Material #25",
      "pbrMetallicRoughness": {
        "baseColorTexture": {
          "index": 0
        },
        "metallicFactor": 0.4000000059604645,
        "roughnessFactor": 0.7071067690849304
      }
    }
  ],
  "meshes": [
    {
      "name": "body",
      "primitives": [
        {
          "attributes": {
            "JOINTS_0": 3,
            "NORMAL": 1,
            "POSITION": 0,
            "TEXCOORD_0": 2,
            "WEIGHTS_0": 4
          },
          "indices": 5,
          "material": 0
        }
      ]
    }
  ],
  "nodes": [
    {
      "mesh": 0,
      "name": "body",
      "rotation": [
        -0.7071067690849304,
        -0.0,
        0.0,
        0.7071067690849304
      ],
      "scale": [
        0.009999999776482582,
        0.009999999776482582,
        0.009999999776482582
      ],
      "skin": 0
    },
    {
      "children": [
        2,
        5
      ],
      "name": "Bip01",
      "rotation": [
        0.007578598335385323,
        0.04344917833805084,
        -0.019449196755886078,
        0.9988375306129456
      ],
      "scale": [
        0.010000000707805157,
        0.009999999776482582,
        0.009999999776482582
      ],
      "translation": [
        -2.4033362865448,
        -0.04297216236591339,
        -1.878372790642402e-09
      ]
    },
    {
      "children": [
        3
      ],
      "name": "Bone002",
      "rotation": [
        4.843862552661449e-05,
        -0.018940741196274757,
        0.0025522883515805006,
        0.9998173713684082
      ],
      "scale": [
        1.0000003576278687,
        1.0000001192092896,
        1.0000003576278687
      ],
      "translation": [
        124.25885009765625,
        -5.245208740234375e-05,
        0.0
      ]
    },
    {
      "children": [
        4
      ],
      "name": "Bone003",
      "rotation": [
        -0.0011668239021673799,
        -0.06483056396245956,
        -0.011314944364130497,
        0.9978314638137817
      ],
      "scale": [
        0.9999999403953552,
        1.000000238418579,
        1.0
      ],
      "translation": [
        124.45018768310547,
        2.288818359375e-05,
        0.0
      ]
    },
    {
      "name": "Bone004",
      "rotation": [
        0.005476407241076231,
        -0.06454797834157944,
        0.025733212009072304,
        0.9975677132606506
      ],
      "scale": [
        0.9999998211860657,
        1.000000238418579,
        1.0000001192092896
      ],
      "translation": [
        117.97675323486328,
        4.76837158203125e-06,
        -1.71661376953125e-05
      ]
    },
    {
      "children": [
        6,
        7
      ],
      "name": "B_head",
      "rotation": [
        -8.479767998892385e-09,
        1.1804193178477362e-07,
        0.9992867708206177,
        -0.03776109591126442
      ],
      "scale": [
        1.000000238418579,
        1.0000001192092896,
        1.0
      ],
      "translation": [
        124.25942993164063,
        0.0,
        0.0
      ]
    },
    {
      "name": "Bone006(mirrored)",
      "rotation": [
        -0.09758486598730087,
        0.7003408074378967,
        -0.6962100267410278,
        -0.12365902960300446
      ],
      "scale": [
        1.0,
        1.0,
        0.9999998807907104
      ],
      "translation": [
        27.64807891845703,
        23.75139045715332,
        62.279319763183594
      ]
    },
    {
      "name": "Bone006",
      "rotation": [
        -0.12365898489952087,
        -0.6962101459503174,
        0.7003406882286072,
        -0.09758498519659042
      ],
      "scale": [
        0.9999998807907104,
        1.0000001192092896,
        0.9999998807907104
      ],
      "translation": [
        27.64806365966797,
        23.75139045715332,
        -62.64873504638672
      ]
    }
  ],
  "samplers": [
    {}
  ],
  "scenes": [
    {
      "nodes": [
        0,
        1
      ]
    }
  ],
  "skins": [
    {
      "inverseBindMatrices": 6,
      "joints": [
        6,
        2,
        5,
        3,
        4,
        7
      ]
    }
  ],
  "textures": [
    {
      "name": "Map #3",
      "sampler": 0,
      "source": 0
    }
  ]
}